<?xml version="1.0" encoding="utf-8"?>
<!-- Generator: Adobe Illustrator 25.4.1, SVG Export Plug-In . SVG Version: 6.00 Build 0)  -->
<svg version="1.1" id="Layer_1" xmlns="http://www.w3.org/2000/svg" xmlns:xlink="http://www.w3.org/1999/xlink" x="0px" y="0px"
	 viewBox="0 0 269.3 155.9" style="enable-background:new 0 0 269.3 155.9;" xml:space="preserve">
<style type="text/css">
	.st0{fill:#FFFFFF;}
	.st1{clip-path:url(#SVGID_00000059305504749297976760000006380684827656879236_);fill:#2C6E8E;}
	.st2{clip-path:url(#SVGID_00000059305504749297976760000006380684827656879236_);fill:#FFFFFF;}
</style>
<g>
	<path class="st0" d="M212.2,121.8v7.1h-1.4c-0.1-0.5-0.3-1-0.4-1.5c-1,1.2-2.2,1.7-3.6,1.7c-1.7,0-3.1-0.6-4.1-1.9
		c-1-1.2-1.5-2.9-1.5-4.8c0-2.1,0.5-3.8,1.6-5.1c1-1.3,2.4-1.9,4.2-1.9c1.5,0,2.7,0.4,3.6,1.3c0.9,0.8,1.5,1.9,1.7,3.3l-3,0.4
		c-0.2-1.6-1-2.4-2.3-2.4c-0.8,0-1.5,0.4-1.9,1.1c-0.4,0.8-0.7,1.9-0.7,3.3c0,1.4,0.2,2.4,0.7,3.1c0.5,0.7,1.1,1.1,2,1.1
		c0.6,0,1.1-0.2,1.5-0.5s0.7-0.9,0.7-1.8h-2.5v-2.5H212.2z"/>
	<path class="st0" d="M228.7,129h-2.9v-5.5c0-0.8,0-1.3-0.1-1.5c0-0.2-0.2-0.4-0.4-0.6s-0.5-0.2-0.8-0.2c-0.3,0-0.6,0.1-1,0.3
		c-0.3,0.2-0.5,0.9-0.5,2v5.5h-2.9v-5.5c0-0.8,0-1.3-0.1-1.5c-0.1-0.2-0.2-0.4-0.4-0.6s-0.5-0.2-0.8-0.2c-0.5,0-0.9,0.2-1.1,0.5
		c-0.2,0.3-0.4,0.9-0.4,1.8v5.5h-2.8v-9.9h2.7v1.5c0.5-1.1,1.4-1.7,2.8-1.7c1.3,0,2.2,0.6,2.7,1.7c0.5-1.1,1.5-1.7,2.9-1.7
		c0.7,0,1.2,0.1,1.7,0.4c0.5,0.3,0.8,0.6,1,1s0.3,1.2,0.3,2.2V129z"/>
	<path class="st0" d="M234,115.6v4.7c0.5-1,1.3-1.4,2.4-1.4c1.1,0,2,0.5,2.7,1.4c0.7,0.9,1,2.2,1,3.8c0,1.5-0.3,2.8-1,3.7
		c-0.7,0.9-1.7,1.4-2.9,1.4c-0.7,0-1.2-0.1-1.6-0.3c-0.4-0.2-0.8-0.7-1.3-1.4c-0.2,0.2-0.4,0.7-0.7,1.5h-1.6v-13.4H234z M234,125.1
		c0,0.7,0.1,1.2,0.4,1.6c0.3,0.4,0.6,0.5,1,0.5c0.5,0,0.9-0.2,1.2-0.6c0.3-0.4,0.5-1.3,0.5-2.5c0-1.4-0.2-2.3-0.5-2.6
		c-0.3-0.4-0.7-0.5-1.1-0.5c-0.5,0-0.9,0.2-1.1,0.6s-0.4,1-0.4,1.7V125.1z"/>
	<path class="st0" d="M252.4,115.6V129h-3.1v-5.5h-4.2v5.5h-3.1v-13.4h3.1v5.2h4.2v-5.2H252.4z"/>
</g>
<g>
	<defs>
		<rect id="SVGID_1_" width="269.3" height="155.9"/>
	</defs>
	<clipPath id="SVGID_00000070084294489705043120000017208034670753472677_">
		<use xlink:href="#SVGID_1_"  style="overflow:visible;"/>
	</clipPath>
	<path style="clip-path:url(#SVGID_00000070084294489705043120000017208034670753472677_);fill:#2C6E8E;" d="M14.6,92.1
		C54.1,75.5,93.5,58.9,133,42.2v10.3C93.5,65.8,54.1,79,14.6,92.1"/>
	<path style="clip-path:url(#SVGID_00000070084294489705043120000017208034670753472677_);fill:#FFFFFF;" d="M133,42.2
		c3.5,0.6,7.1,1.1,10.6,1.7v10.3c-3.5-0.6-7.1-1.1-10.6-1.7V42.2z"/>
	<path style="clip-path:url(#SVGID_00000070084294489705043120000017208034670753472677_);fill:#2C6E8E;" d="M143.6,27.5v26.8
		c15.2-4.6,30.4-9.1,45.6-13.7V5.2C173.9,12.6,158.8,20.1,143.6,27.5"/>
	<path style="clip-path:url(#SVGID_00000070084294489705043120000017208034670753472677_);fill:#FFFFFF;" d="M189.1,40.6
		c21,14.9,41.9,29.8,62.9,44.7v-0.4c-21-26.6-41.9-53.1-62.9-79.7V40.6z"/>
	<path style="clip-path:url(#SVGID_00000070084294489705043120000017208034670753472677_);fill:#2C6E8E;" d="M14.6,99.3
		C54.1,88.5,93.5,77.7,133,66.8c0,4.9,0,9.8,0,14.7c-39.4,6-78.9,12.1-118.3,18.1V99.3z"/>
	<path style="clip-path:url(#SVGID_00000070084294489705043120000017208034670753472677_);fill:#FFFFFF;" d="M133,66.8
		c0,4.9,0,9.8,0,14.7c3.5,0.6,7.1,1.1,10.6,1.7V68.5C140,68,136.5,67.4,133,66.8"/>
	<path style="clip-path:url(#SVGID_00000070084294489705043120000017208034670753472677_);fill:#FFFFFF;" d="M133,95.6
		c0,4,0,8.1,0,12.1c3.5,0,7.1,0,10.6,0V97.3C140,96.8,136.5,96.2,133,95.6"/>
	<path style="clip-path:url(#SVGID_00000070084294489705043120000017208034670753472677_);fill:#2C6E8E;" d="M143.6,68.5v14.7
		c15.2-2.4,30.4-4.9,45.6-7.3V55.8C173.9,60,158.8,64.3,143.6,68.5"/>
	<path style="clip-path:url(#SVGID_00000070084294489705043120000017208034670753472677_);fill:#2C6E8E;" d="M143.6,97.3v10.4
		c15.2,0.9,30.4,1.8,45.6,2.7V91.2C173.9,93.2,158.8,95.3,143.6,97.3"/>
	<path style="clip-path:url(#SVGID_00000070084294489705043120000017208034670753472677_);fill:#FFFFFF;" d="M189.1,55.8v20.1
		c21,5.5,41.9,10.9,62.9,16.4V92C231,79.9,210.1,67.9,189.1,55.8"/>
	<path style="clip-path:url(#SVGID_00000070084294489705043120000017208034670753472677_);fill:#2C6E8E;" d="M14.6,106
		c39.4,0.6,78.9,1.1,118.3,1.7c0-4,0-8.1,0-12.1C93.5,99.1,54.1,102.6,14.6,106"/>
	<path style="clip-path:url(#SVGID_00000070084294489705043120000017208034670753472677_);fill:#FFFFFF;" d="M189.1,91.2v19.3
		c21-3.9,41.9-7.9,62.9-11.8v-0.3C231,96,210.1,93.6,189.1,91.2"/>
</g>
<g>
	<path class="st0" d="M75.1,118.8v15.8c0,2.5-0.3,4.4-0.9,5.7c-0.6,1.2-1.7,2.3-3.2,3.1c-1.6,0.8-3.6,1.2-6,1.2
		c-2.4,0-4.4-0.4-5.8-1.1s-2.5-1.7-3.2-3.1c-0.7-1.3-1.1-3.3-1.1-5.8v-15.8h6.4v15.8c0,1.4,0.1,2.4,0.3,3c0.2,0.6,0.7,1.2,1.4,1.5
		c0.7,0.4,1.5,0.6,2.5,0.6c1.1,0,2-0.2,2.7-0.6c0.7-0.4,1.2-0.9,1.4-1.5c0.2-0.6,0.3-1.6,0.3-3.1v-15.8H75.1z"/>
	<path class="st0" d="M85.9,134.7v9.4h-6v-25.3h10c2.2,0,3.9,0.2,5.1,0.7c1.2,0.5,2.2,1.3,3.2,2.5c0.9,1.2,1.4,2.7,1.4,4.5
		c0,1.2-0.2,2.5-0.7,3.7s-1.2,2.1-2.1,2.8c-0.9,0.7-1.8,1.1-2.6,1.4c-0.8,0.2-2.2,0.3-4,0.3H85.9z M85.7,130.1h3.9
		c1.5,0,2.5-0.3,3.1-1c0.6-0.7,0.9-1.5,0.9-2.3c0-1-0.3-1.8-1-2.4c-0.7-0.6-1.7-0.9-3-0.9h-3.8V130.1z"/>
</g>
<g>
	<path class="st0" d="M116.5,129.9l-4,1.1c-0.5-1.7-1.7-2.5-3.7-2.5c-1.9,0-2.8,0.6-2.8,1.7c0,0.4,0.2,0.8,0.5,1.1
		c0.3,0.3,1.2,0.5,2.7,0.7c2.1,0.3,3.7,0.6,4.7,1c1,0.4,1.8,1,2.4,1.9c0.6,0.9,0.9,2,0.9,3.2c0,1.9-0.7,3.5-2.2,4.7
		c-1.5,1.2-3.5,1.8-6.1,1.8c-4.8,0-7.6-1.8-8.5-5.5l4.7-0.7c0.4,1.7,1.8,2.5,4.2,2.5c0.9,0,1.7-0.2,2.3-0.5c0.6-0.3,0.9-0.8,0.9-1.3
		c0-0.9-0.7-1.4-2.1-1.5c-3.8-0.5-6.3-1.2-7.5-2.2c-1.2-1-1.8-2.4-1.8-4.1c0-1.8,0.7-3.3,2.1-4.4c1.4-1.2,3.3-1.7,5.8-1.7
		c2,0,3.6,0.4,4.7,1.2C115,126.9,115.9,128.2,116.5,129.9z"/>
	<path class="st0" d="M136.5,125.4v18.7h-5.1v-3.2c-1,2.4-2.8,3.6-5.5,3.6c-1.4,0-2.5-0.3-3.2-0.8c-0.8-0.5-1.3-1.2-1.6-2.2
		c-0.3-0.9-0.5-2.2-0.5-3.9v-12.2h5.4v12.2c0,1.7,0.7,2.5,2.1,2.5c0.7,0,1.3-0.2,1.8-0.6c0.5-0.4,0.8-0.8,1-1.3
		c0.1-0.5,0.2-1.2,0.2-2.4v-10.5H136.5z"/>
	<path class="st0" d="M146.4,144.1h-5.4v-18.7h5.1v3.5c0.8-2.6,2.1-3.9,4-3.9c0.3,0,0.6,0,1,0.1v5.5c-1.1,0-2,0.2-2.6,0.5
		c-0.6,0.3-1.1,1-1.5,1.9s-0.6,2.1-0.6,3.6V144.1z"/>
	<path class="st0" d="M173,125.8c-0.6-0.1-1.1-0.2-1.5-0.2c-1.2,0-1.9,0.5-2.2,1.6c1,1.1,1.5,2.2,1.5,3.6c0,1.8-0.7,3.2-2.2,4.2
		c-1.5,1.1-3.6,1.6-6.4,1.6c-1,0-2-0.1-2.9-0.3c-0.6,0.4-0.9,0.8-0.9,1.4c0,0.6,0.3,1.1,0.8,1.3c0.5,0.2,1.8,0.4,3.8,0.5
		c2.9,0.1,4.9,0.3,6,0.5c1.1,0.2,2,0.7,2.7,1.5c0.7,0.8,1.1,1.8,1.1,3c0,1.7-0.8,3.2-2.4,4.4c-1.6,1.2-4.4,1.8-8.4,1.8
		c-3.8,0-6.4-0.4-7.7-1.2c-1.3-0.8-2-1.9-2-3.1c0-1.7,1.1-2.8,3.2-3.4c-1.6-0.8-2.4-1.9-2.4-3.3c0-1.8,1.2-3.2,3.7-4.2
		c-2.2-0.9-3.3-2.4-3.3-4.6c0-1.7,0.8-3.2,2.3-4.2c1.5-1.1,3.6-1.6,6.3-1.6c1.7,0,3.4,0.3,5,0.8c0.1-1.1,0.4-1.9,0.9-2.6
		c0.5-0.7,1.6-1,3.3-1c0.5,0,1.1,0,1.6,0.1V125.8z M158.5,144c-0.2,0-0.5,0.1-0.8,0.4s-0.5,0.7-0.5,1.1c0,0.8,0.5,1.4,1.6,1.6
		s2.3,0.3,3.8,0.3c1.9,0,3.2-0.1,4-0.4s1.1-0.7,1.1-1.4c0-0.5-0.3-0.9-1-1.1s-2.3-0.4-5.1-0.4l-1.1,0c-0.7,0-1.1,0-1.4-0.1
		C158.9,144,158.7,144,158.5,144z M162.2,128c-0.9,0-1.7,0.3-2.2,0.8c-0.5,0.5-0.8,1.2-0.8,2c0,1.9,1,2.9,3.1,2.9
		c1,0,1.8-0.3,2.3-0.8c0.6-0.6,0.8-1.2,0.8-2c0-0.7-0.3-1.4-0.8-2C164,128.3,163.2,128,162.2,128z"/>
	<path class="st0" d="M192.1,135.7H180c0,0.3,0,0.6,0,0.9c0,1.3,0.4,2.3,1.1,3s1.6,1,2.5,1c1.8,0,2.9-1,3.3-2.9l5,0.4
		c-1.4,4.3-4.2,6.5-8.5,6.5c-1.9,0-3.5-0.4-4.8-1.1s-2.4-1.8-3.2-3.3c-0.8-1.4-1.3-3.2-1.3-5.2c0-3,0.9-5.4,2.5-7.2
		c1.7-1.8,3.9-2.7,6.6-2.7c2.4,0,4.5,0.9,6.2,2.5C191.2,129.3,192.1,132,192.1,135.7z M180,132.5h6.7c-0.2-2.6-1.2-3.9-3.2-3.9
		C181.4,128.6,180.2,129.9,180,132.5z"/>
</g>
</svg>
